Coordinates
version=1
nRows=7
nColumns=40
inDegrees=yes

Units are S.I. units (second, meters, Newtons, ...)
If the header above contains a line with 'inDegrees', this indicates whether rotational values are in degrees (yes) or radians (no).

endheader
time	pelvis_tilt	pelvis_list	pelvis_rotation	pelvis_tx	pelvis_ty	pelvis_tz	hip_flexion_r	hip_adduction_r	hip_rotation_r	knee_angle_r	knee_angle_r_beta	ankle_angle_r	subtalar_angle_r	mtp_angle_r	hip_flexion_l	hip_adduction_l	hip_rotation_l	knee_angle_l	knee_angle_l_beta	ankle_angle_l	subtalar_angle_l	mtp_angle_l	lumbar_extension	lumbar_bending	lumbar_rotation	arm_flex_r	arm_add_r	arm_rot_r	elbow_flex_r	pro_sup_r	wrist_flex_r	wrist_dev_r	arm_flex_l	arm_add_l	arm_rot_l	elbow_flex_l	pro_sup_l	wrist_flex_l	wrist_dev_l
      0.00000000	    -29.83355330	     -3.29998917	      0.88184021	     -0.31719403	      1.19205669	      0.05576127	     98.27882527	     -5.71066679	      0.36216606	     94.33073827	      1.64638197	     -0.21917050	    -26.17166952	      0.00000000	     59.17930901	     -9.80753819	      0.81162814	     46.32249392	      0.80848004	    -12.56811753	     -9.03013698	      0.00000000	    -46.28462205	      8.00902337	      1.45679549	     89.92127783	     -5.51515142	     14.32204482	     35.75371936	     86.60709173	      0.00000000	      0.00000000	     89.91126351	    -11.61338174	     24.65624154	     28.25982483	     75.26186786	      0.00000000	      0.00000000
      0.00833333	    -29.79245122	     -3.04981142	      1.04162832	     -0.31748925	      1.19212575	      0.05565415	     97.91589575	     -5.83702459	      0.52256432	     93.06818870	      1.62434632	     -0.08936609	    -26.27534710	      0.00000000	     59.65767434	     -9.62252139	      0.78346725	     48.04418810	      0.83852927	    -12.23079918	     -9.17469338	      0.00000000	    -46.30106903	      7.88376141	      1.13704686	     89.92197889	     -5.48074019	     14.25639098	     35.75625662	     86.61404147	      0.00000000	      0.00000000	     89.91275042	    -11.66676432	     24.59828306	     28.29893405	     75.24469050	      0.00000000	      0.00000000
      0.01666667	    -29.87978952	     -3.00936098	      1.13007091	     -0.31793396	      1.19193812	      0.05572437	     97.54457435	     -5.80703050	      0.49279969	     91.58646022	      1.59848528	     -0.04456359	    -26.56485915	      0.00000000	     60.38807337	     -9.59841268	      0.97414958	     49.88025492	      0.87057468	    -11.65412402	     -9.48631359	      0.00000000	    -46.18775355	      7.88453173	      1.03431138	     89.92191467	     -5.45504960	     14.19792672	     35.71968545	     86.64020935	      0.00000000	      0.00000000	     89.91417597	    -11.68234129	     24.59877629	     28.29669765	     75.24504362	      0.00000000	      0.00000000
      0.02500000	    -29.90199769	     -3.05329474	      1.25500352	     -0.31834433	      1.19187152	      0.05582334	     97.02895859	     -5.86553984	      0.29392350	     90.04620362	      1.57160273	     -0.20481549	    -26.97905841	      0.00000000	     61.11887960	     -9.65537001	      1.14208057	     51.74919867	      0.90319390	    -11.35107522	     -9.64885308	      0.00000000	    -46.15642378	      7.96089414	      0.98613493	     89.92224187	     -5.46880615	     14.15498163	     35.74438379	     86.65439564	      0.00000000	      0.00000000	     89.91500293	    -11.68145819	     24.54791034	     28.39310019	     75.24682123	      0.00000000	      0.00000000
      0.03333333	    -29.91434232	     -2.95827190	      1.34552329	     -0.31869594	      1.19177919	      0.05588249	     96.48792627	     -5.86537958	      0.23611945	     88.42501068	      1.54330758	     -0.51760481	    -27.52631167	      0.00000000	     61.83235846	     -9.66399394	      1.16509258	     53.62790572	      0.93598353	    -11.11725997	     -9.74889828	      0.00000000	    -46.12583849	      7.90844958	      0.85454064	     89.92233128	     -5.46379884	     14.10434672	     35.75796863	     86.66280464	      0.00000000	      0.00000000	     89.91556856	    -11.69676913	     24.50176857	     28.48741672	     75.30133000	      0.00000000	      0.00000000
      0.04166667	    -29.81630479	     -2.63313951	      1.56211577	     -0.31886719	      1.19187390	      0.05559400	     95.79423854	     -6.09529727	      0.40499667	     86.86754791	      1.51612472	     -0.51810353	    -27.53714339	      0.00000000	     62.32554528	     -9.38030945	      1.09919833	     55.39086994	      0.96675306	    -10.88100992	     -9.82340658	      0.00000000	    -46.18923539	      7.76889770	      0.43622675	     89.92214224	     -5.42902694	     14.06392777	     35.80437397	     86.66428021	      0.00000000	      0.00000000	     89.91702804	    -11.74197026	     24.36372232	     28.68381649	     75.26906157	      0.00000000	      0.00000000
      0.05000000	    -29.74004400	     -2.33374755	      1.77229998	     -0.31905392	      1.19192611	      0.05532114	     95.06152341	     -6.31371438	      0.54773904	     85.23722574	      1.48767023	     -0.56391611	    -27.52477637	      0.00000000	     62.88630627	     -9.11610412	      1.06453922	     57.19847246	      0.99830167	    -10.65166480	     -9.92981312	      0.00000000	    -46.23306083	      7.64265818	      0.04968663	     89.92225644	     -5.38845848	     13.98169623	     35.80319506	     86.65731877	      0.00000000	      0.00000000	     89.91784041	    -11.76764913	     24.29903639	     28.75177983	     75.26413125	      0.00000000	      0.00000000
